<svg version="1.1" id="Layer_1" xmlns="http://www.w3.org/2000/svg" xmlns:xlink="http://www.w3.org/1999/xlink" x="0px" y="0px"
	 width="100%" viewBox="0 0 1000 486" enable-background="new 0 0 1000 486" xml:space="preserve">
<path fill="#010101" opacity="1.000000" stroke="none" 
	d="
M594.000000,487.000000 
	C396.000000,487.000000 198.500000,487.000000 1.000000,487.000000 
	C1.000000,325.000000 1.000000,163.000000 1.000000,1.000000 
	C334.333344,1.000000 667.666687,1.000000 1001.000000,1.000000 
	C1001.000000,163.000000 1001.000000,325.000000 1001.000000,487.000000 
	C865.500000,487.000000 730.000000,487.000000 594.000000,487.000000 
M264.170135,140.886459 
	C262.449371,138.291641 260.728638,135.696838 258.638947,132.545715 
	C256.584442,133.183182 253.923447,134.008835 251.024673,134.908264 
	C257.335510,143.256653 264.024658,149.883530 274.346710,152.814346 
	C275.648895,153.209091 276.951080,153.603821 278.894684,154.192993 
	C274.169098,158.433304 270.434265,162.472397 266.031830,165.559402 
	C260.629486,169.347549 259.677643,174.504868 259.782623,180.345993 
	C259.805145,181.599701 259.924744,182.851654 260.028290,184.584686 
	C258.299438,183.555527 257.051758,182.812790 255.662323,181.255615 
	C257.454559,170.359680 262.429871,161.300613 271.951141,154.463486 
	C270.527344,153.893036 269.815369,153.378616 269.083984,153.349335 
	C258.840759,152.939270 251.621994,146.572037 244.416138,140.499771 
	C240.293686,137.025864 236.891098,132.697678 233.129288,128.716949 
	C231.540573,129.709518 230.334061,130.586380 229.023209,131.260300 
	C224.152725,133.764221 221.874542,137.194702 222.206635,143.165787 
	C222.676071,151.607147 221.805450,160.118546 221.659210,168.602615 
	C221.631851,170.190262 222.019577,171.935669 222.718445,173.361954 
	C229.897552,188.013443 242.832153,195.175201 257.784210,200.442017 
	C257.921783,197.972641 258.030731,196.017105 258.904541,194.037292 
	C259.643768,195.532349 260.267365,197.100418 261.152985,198.503036 
	C262.142944,200.070923 263.074341,201.968567 264.551270,202.880402 
	C268.701050,205.442413 270.660492,208.668350 269.388031,213.580933 
	C267.725555,219.999054 266.147675,226.439056 264.084045,233.451706 
	C262.374207,236.235519 264.295074,240.875732 258.616821,241.986572 
	C258.319916,242.160492 258.022980,242.334412 257.692230,242.553604 
	C257.692230,242.553604 257.506195,242.694733 257.374817,242.630859 
	C257.374817,242.630859 257.313019,242.498505 257.303314,241.795288 
	C253.852295,239.729401 250.532318,237.392288 246.925201,235.649475 
	C236.920288,230.815475 226.451843,232.757339 217.074661,236.393951 
	C205.533951,240.869629 198.287567,250.662109 193.128357,262.730103 
	C192.221237,265.680908 190.637665,268.606964 190.528748,271.586945 
	C190.139709,282.230865 190.083023,292.895844 190.258240,303.546967 
	C190.325836,307.657562 190.883377,311.886658 192.018753,315.831177 
	C196.973984,333.046326 204.661163,348.967316 215.043243,363.625031 
	C229.329193,383.794342 247.366287,398.348633 272.027039,403.985107 
	C279.549622,405.704468 286.760498,405.748108 294.032867,403.843140 
	C296.983063,403.070312 300.078613,401.873474 302.434509,400.015533 
	C307.256073,396.213226 311.923828,392.109711 316.064758,387.589539 
	C318.627197,384.792419 320.402466,381.135254 321.990173,377.619873 
	C323.894318,373.403778 325.150940,368.899902 326.822693,364.572723 
	C328.214142,360.971100 330.910919,360.300385 334.458740,361.295593 
	C342.759155,363.623840 351.196899,365.506195 359.394287,368.143341 
	C365.342712,370.056976 368.444214,365.802643 371.922974,362.935120 
	C372.965302,362.075867 371.655273,358.400574 371.475311,356.011475 
	C371.239380,352.879791 370.876343,349.743866 370.881927,346.610321 
	C370.899872,336.590424 370.043427,326.971039 361.270142,320.119232 
	C359.720734,318.909119 358.731262,316.990997 357.203217,315.742493 
	C354.403046,313.454559 353.363495,310.949677 355.843109,307.183929 
	C357.218475,304.121857 358.593811,301.059814 360.476288,297.526184 
	C362.723938,292.902069 364.819183,288.196106 367.250854,283.670868 
	C372.351959,274.177948 377.573608,264.748047 382.894562,255.376770 
	C383.718292,253.925934 385.329590,252.922256 386.576691,251.711807 
	C387.081451,252.104858 387.586182,252.497910 388.090942,252.890961 
	C385.414215,258.117859 382.554718,263.261932 380.133392,268.604614 
	C378.810211,271.524353 377.583282,274.747253 377.423462,277.889923 
	C376.714630,291.828613 376.346222,305.786285 376.022766,319.740997 
	C375.974762,321.812714 376.500000,324.042847 377.314514,325.964691 
	C381.133301,334.974854 385.120453,343.914154 389.094299,352.858002 
	C400.431213,378.373749 418.871277,396.849640 444.206329,408.535461 
	C459.624023,415.646912 474.912689,415.603943 490.788086,407.920898 
	C492.600464,406.112488 494.412842,404.304108 496.834900,402.151611 
	C498.869354,399.699219 500.903809,397.246826 503.536530,394.495239 
	C505.698517,388.997070 507.860535,383.498901 510.456635,377.441833 
	C510.649536,376.294250 510.842407,375.146667 511.432800,373.484650 
	C511.511230,373.067871 511.589630,372.651093 511.977020,371.659760 
	C512.165222,370.818512 512.353394,369.977264 512.867798,368.489532 
	C513.102600,367.058014 513.337402,365.626495 513.937622,363.475037 
	C512.814270,354.843292 511.690857,346.211548 510.629761,337.506348 
	C510.502838,337.007965 510.375916,336.509552 510.331604,335.173523 
	C507.838531,328.173584 505.847137,320.941284 502.737854,314.226685 
	C497.740784,303.435425 494.082855,291.836060 485.519287,282.981110 
	C480.083649,277.360504 474.461731,271.898529 469.326965,266.013245 
	C460.239258,255.597183 447.752319,250.814560 435.779602,245.168549 
	C433.892578,244.278671 431.579742,244.116714 429.439728,243.970398 
	C422.470490,243.493835 415.465485,243.412354 408.527405,242.677353 
	C406.132721,242.423676 403.020203,241.331039 401.727875,239.543045 
	C394.265564,229.218643 387.262787,218.562622 380.075958,208.038315 
	C377.662872,204.504593 378.206421,201.637741 381.719116,199.298950 
	C386.791199,201.953049 386.712036,201.870895 390.925446,197.811050 
	C393.545441,195.286575 396.560791,193.173508 399.192657,190.660034 
	C401.621033,188.340866 403.540497,189.035156 405.572632,191.078857 
	C410.378998,195.912613 415.255951,200.676682 420.033112,205.538879 
	C423.279480,208.842987 426.405243,212.265625 430.220703,216.309006 
	C427.391174,216.156570 425.811127,216.071457 423.998413,215.973801 
	C423.990540,220.285339 425.113556,222.684036 429.886322,222.658737 
	C434.176880,222.635986 438.468506,223.612427 442.767181,224.079224 
	C446.566772,224.491852 456.707520,219.189148 458.342255,215.826706 
	C458.699921,215.090988 458.593018,213.836166 458.202271,213.076447 
	C455.254395,207.344696 452.182190,201.676895 449.072968,195.322083 
	C448.434692,194.437347 447.796387,193.552612 446.873413,192.059067 
	C444.249756,190.726837 441.626129,189.394608 438.434967,187.703613 
	C436.678040,186.779449 434.921082,185.855301 432.752625,184.358765 
	C429.056824,181.460175 424.852966,179.014374 421.777344,175.563080 
	C416.376221,169.502258 411.858337,162.663605 406.618286,156.447647 
	C399.804443,148.364792 394.148376,139.719131 390.714020,129.628067 
	C389.313324,125.512527 387.121857,121.666107 385.290192,117.697250 
	C383.682678,121.716621 388.356995,125.103813 383.977753,128.674561 
	C381.029327,131.078674 378.851746,134.557022 375.694000,136.546356 
	C370.600647,139.755157 368.756653,133.126328 363.837280,132.825424 
	C368.198456,127.275154 369.664001,120.238838 377.823730,122.052116 
	C379.286346,108.677071 379.373260,108.773193 389.361298,99.741562 
	C390.936493,98.317177 391.445618,95.619698 392.227478,93.432152 
	C393.740295,89.199501 390.998749,86.288666 388.975311,83.046425 
	C381.390747,70.893333 371.471008,62.290646 356.488647,61.363094 
	C349.076294,60.904205 341.581604,59.853687 335.916718,66.930161 
	C332.886688,70.715202 330.300690,74.236679 330.790985,79.349083 
	C331.022675,81.765099 330.830719,84.221741 330.830719,86.651306 
	C323.621185,86.651306 316.903229,86.651306 308.962250,86.651306 
	C314.679596,96.004669 323.766632,88.986313 330.249573,93.035538 
	C327.064606,111.920364 311.722626,109.455551 297.494019,110.125473 
	C299.345306,111.044891 300.315369,111.366463 301.100159,111.941086 
	C309.407471,118.023483 317.647827,119.542824 326.124115,112.123070 
	C328.376160,110.151756 330.242889,110.627251 331.939941,113.645058 
	C333.629150,116.648964 336.376221,119.058006 338.659424,121.727882 
	C339.142517,121.374557 339.625610,121.021233 340.108734,120.667908 
	C339.784180,118.497612 339.459625,116.327316 339.135071,114.157021 
	C339.488159,114.059746 339.841278,113.962471 340.194397,113.865196 
	C343.498871,118.800682 346.803345,123.736168 350.669312,129.510254 
	C340.436920,127.420471 334.307434,134.243637 326.789734,138.961975 
	C325.660461,135.437836 324.677704,132.370972 323.691101,129.292023 
	C318.377869,131.300095 318.461273,131.302704 318.315582,135.971115 
	C318.037567,144.880630 317.654236,153.786865 317.304352,162.965134 
	C309.999817,162.234192 303.550842,161.658478 297.129181,160.862198 
	C296.282806,160.757233 295.002594,159.606079 294.890228,158.803986 
	C293.048492,145.658539 286.384338,132.994186 290.842773,119.194664 
	C291.271851,117.866585 291.197968,116.376022 291.357574,114.960884 
	C290.882568,114.575371 290.407562,114.189850 289.932556,113.804337 
	C288.138672,115.456703 285.146790,116.882103 284.782410,118.805305 
	C283.810028,123.937508 283.932587,129.282135 283.691803,134.545593 
	C283.591980,136.727264 283.675232,138.917313 283.675232,142.129623 
	C281.105621,139.812027 279.345123,138.137375 277.491913,136.572540 
	C274.505737,134.051041 273.180511,134.669922 271.523895,138.947021 
	C269.303986,139.653656 267.084076,140.360291 264.170135,140.886459 
M207.952759,396.227875 
	C215.225861,396.592957 222.498962,396.958008 229.772064,397.323059 
	C229.810074,396.837006 229.848068,396.350922 229.886063,395.864838 
	C225.020325,395.031464 220.170822,394.083771 215.285370,393.389038 
	C205.737610,392.031372 196.176346,390.760132 186.601273,389.615234 
	C185.507065,389.484436 184.289154,390.388245 183.128586,390.812317 
	C183.726166,391.964905 184.323746,393.117462 184.996246,394.962585 
	C185.002380,395.654297 185.008514,396.346008 184.080414,397.141968 
	C173.278442,397.141968 162.476471,397.141968 151.576401,397.141968 
	C151.732605,397.583069 151.775497,397.868835 151.844284,397.875214 
	C169.496017,399.510193 187.143570,401.196808 204.807785,402.685486 
	C208.609985,403.005890 208.324005,400.709747 206.917007,397.577301 
	C206.973267,397.150391 207.029541,396.723511 207.952759,396.227875 
M510.693481,246.323837 
	C510.693481,249.091614 510.693481,251.859406 510.693481,254.723434 
	C519.397156,254.723434 527.402283,255.189972 535.329956,254.605743 
	C545.314087,253.869965 551.167480,248.410294 553.056580,238.609482 
	C555.235840,227.302994 553.867371,217.062683 542.410950,210.750412 
	C552.482849,204.043091 554.883911,188.391617 547.062561,179.460098 
	C544.827209,176.907471 541.249451,174.455154 538.024658,174.050766 
	C529.213501,172.945847 520.262390,172.957092 510.689728,172.493484 
	C510.689728,197.486694 510.689728,221.426224 510.693481,246.323837 
M726.875122,254.924042 
	C729.474670,254.924042 732.074219,254.924042 735.082886,254.924042 
	C735.082886,252.641068 735.084351,251.009247 735.082703,249.377411 
	C735.070007,237.224472 735.049255,225.071548 735.046387,212.918610 
	C735.044800,206.510178 738.362000,202.450195 743.532715,202.484711 
	C747.787903,202.513107 749.146545,204.854691 749.149109,212.246277 
	C749.153381,224.399216 749.133911,236.552155 749.140381,248.705093 
	C749.143799,255.212082 749.159607,255.226593 755.783081,254.854172 
	C756.740967,254.800323 757.686584,254.529282 759.063293,254.282471 
	C759.063293,249.662582 759.083557,245.201660 759.059387,240.740982 
	C758.999084,229.588318 759.140259,218.428574 758.779236,207.285324 
	C758.465637,197.609879 753.927124,193.987274 744.478394,196.056915 
	C740.792480,196.864288 737.475159,199.354294 734.006165,201.069870 
	C727.057983,191.380722 719.342529,195.540771 711.497620,200.519363 
	C711.113708,199.009659 710.771484,197.664154 710.470337,196.480164 
	C707.216003,196.480164 704.305176,196.480164 701.363281,196.480164 
	C701.363281,216.082611 701.363281,235.288467 701.363281,254.570160 
	C704.722900,254.570160 707.605896,254.570160 710.925476,254.570160 
	C710.925476,252.579712 710.922363,250.947296 710.925903,249.314896 
	C710.953552,236.662582 711.244751,224.002609 710.876343,211.361862 
	C710.737671,206.604599 714.545593,202.552246 719.672119,202.556442 
	C725.015869,202.560822 725.069031,207.019745 725.087280,210.921371 
	C725.147156,223.739914 725.093994,236.559021 725.176025,249.377335 
	C725.187256,251.130692 725.718506,252.880722 726.875122,254.924042 
M818.616211,244.672974 
	C814.502075,244.134766 810.391235,243.569214 806.272522,243.068787 
	C803.885742,242.778763 800.864136,243.447586 801.045715,239.501587 
	C801.225342,235.598694 804.090393,236.892059 806.214111,236.984329 
	C816.949768,237.450745 822.611755,233.246674 824.039490,222.586929 
	C824.793030,216.960739 824.172791,211.150558 824.172791,204.987640 
	C825.241577,204.601501 827.052917,203.730103 828.963562,203.304840 
	C832.265564,202.569931 832.287659,200.745392 831.206970,198.136215 
	C830.007996,195.241562 828.169312,195.463516 826.059082,196.873215 
	C824.150940,198.147919 822.330627,199.554092 820.357300,200.985184 
	C815.333618,194.704239 808.636963,194.056717 801.823792,196.517258 
	C794.926086,199.008316 792.690796,205.325943 791.918030,212.040131 
	C790.973267,220.249863 791.928894,228.049225 798.405212,234.012741 
	C790.577393,241.828400 790.248535,244.363358 795.934204,250.781174 
	C794.690857,252.097687 793.315186,253.318253 792.220642,254.753311 
	C786.860718,261.780945 788.908508,269.461334 797.493042,271.258484 
	C803.973572,272.615234 811.021545,272.677490 817.599487,271.758484 
	C824.310913,270.820862 828.244873,265.062927 828.572327,258.691528 
	C828.905823,252.204086 825.751892,247.447678 818.616211,244.672974 
M681.149780,248.378494 
	C682.860840,255.886627 683.725342,256.326294 693.223877,254.145462 
	C687.446350,227.152374 681.667175,200.151657 675.851379,172.980011 
	C672.917542,172.980011 670.430298,173.079941 667.954651,172.953003 
	C665.274292,172.815567 664.299011,173.972931 663.753357,176.608215 
	C659.682068,196.269806 655.387817,215.885117 651.235901,235.530243 
	C649.912842,241.790604 648.808838,248.097275 647.535950,254.741196 
	C649.209351,254.819397 650.195129,254.750381 651.134216,254.928329 
	C656.517822,255.948608 658.887451,253.855316 659.351379,248.289673 
	C659.742371,243.599838 661.284668,239.005981 662.314209,234.383881 
	C663.374451,234.286789 664.025757,234.188934 664.679077,234.172897 
	C678.530518,233.832916 678.530579,233.834732 681.149780,248.378494 
M866.981506,248.360336 
	C872.327515,233.934402 871.440186,219.254761 867.816650,204.778152 
	C866.151001,198.123413 859.444275,194.910583 851.924011,195.295975 
	C844.070068,195.698486 837.912354,199.542496 837.227600,206.899521 
	C836.125488,218.739502 836.113892,230.745438 836.593079,242.642914 
	C836.861572,249.306763 841.212463,253.826996 848.161072,255.230103 
	C855.540039,256.720123 862.098145,255.935196 866.981506,248.360336 
M585.162903,229.479996 
	C585.429504,233.956223 585.348083,238.487061 586.039673,242.896637 
	C587.251648,250.623276 592.799866,255.324509 600.763733,256.002075 
	C608.575806,256.666718 614.763062,253.358093 616.918030,246.459641 
	C618.213928,242.311279 618.259277,237.772324 618.900391,233.166199 
	C614.967712,233.166199 611.919617,233.166199 608.707214,233.166199 
	C608.432617,236.596146 608.221741,239.734848 607.919739,242.864777 
	C607.601868,246.159271 605.489014,247.340622 602.433960,247.374054 
	C597.716370,247.425674 596.450867,244.243591 596.446472,240.472992 
	C596.434326,230.006714 596.678589,219.540207 596.811707,209.073654 
	C596.854919,205.676254 598.333435,203.938843 601.947571,203.805084 
	C605.722534,203.665359 607.509338,205.424042 607.960327,208.914978 
	C608.313721,211.650055 608.568848,214.397827 608.858948,217.060486 
	C612.297302,217.060486 615.227295,217.060486 618.499084,217.060486 
	C618.284973,213.596512 618.766724,210.214249 617.726868,207.392914 
	C616.422241,203.853745 614.614563,199.709259 611.722595,197.687958 
	C601.281555,190.390366 587.311401,196.979111 585.969360,209.563324 
	C585.301147,215.828751 585.407837,222.176819 585.162903,229.479996 
M628.465637,218.500580 
	C628.465637,230.562164 628.465637,242.623749 628.465637,254.587860 
	C632.533691,254.587860 635.754578,254.587860 639.622192,254.587860 
	C639.622192,237.926666 639.630859,221.655975 639.618896,205.385269 
	C639.611938,195.890579 639.596985,195.884644 630.170044,196.122787 
	C629.721069,196.134125 629.278931,196.414139 628.475769,196.693512 
	C628.475769,203.610336 628.475769,210.555328 628.465637,218.500580 
M770.463501,209.515778 
	C770.447754,222.992111 770.528503,236.469681 770.355286,249.944000 
	C770.305664,253.805573 771.463379,255.325348 775.510254,254.938217 
	C778.872009,254.616608 781.982788,255.440979 781.793396,250.022766 
	C781.404297,238.889832 781.718018,227.732513 781.733398,216.585220 
	C781.742737,209.828934 781.735107,203.072617 781.735107,196.389572 
	C770.491821,195.677475 770.492004,195.677475 770.487671,205.528458 
	C770.487183,206.526794 770.483154,207.525146 770.463501,209.515778 
M563.222778,213.502457 
	C563.226807,224.477493 563.223206,235.452560 563.237244,246.427582 
	C563.248901,255.598190 563.258484,255.603561 572.328918,254.831772 
	C572.800049,254.791656 573.252258,254.529175 574.077393,254.244705 
	C574.077393,234.965668 574.077393,215.619934 574.077393,196.366562 
	C570.448486,196.366562 567.193848,196.366562 563.226929,196.366562 
	C563.226929,201.938721 563.226929,207.221252 563.222778,213.502457 
M283.368744,96.915947 
	C285.686371,95.608826 288.003998,94.301704 290.321625,92.994591 
	C290.129425,92.555244 289.937256,92.115906 289.745087,91.676567 
	C283.169891,93.158318 276.553497,94.479324 270.027679,96.153488 
	C253.729874,100.334602 240.892715,108.550812 236.355759,126.120949 
	C239.255356,129.218781 241.789139,129.073730 243.723160,124.839645 
	C244.410873,123.334068 244.899414,121.669838 245.874847,120.376709 
	C248.293076,117.170822 250.339340,113.059029 253.608368,111.238823 
	C262.993774,106.013016 272.911224,101.742714 283.368744,96.915947 
M422.151978,409.266907 
	C423.417694,409.089722 424.683411,408.912567 425.949127,408.735382 
	C412.606354,406.924561 399.774963,400.489960 386.013336,403.746887 
	C385.936554,404.520630 385.859741,405.294403 385.782959,406.068146 
	C397.633179,407.151001 409.483368,408.233887 422.151978,409.266907 
M639.593262,179.728653 
	C639.412476,178.622711 639.293091,176.570526 639.041687,176.554184 
	C635.795593,176.343475 632.528870,176.376663 629.273376,176.502655 
	C628.960693,176.514771 628.450867,177.554367 628.436157,178.127319 
	C628.354370,181.325348 628.396851,184.526550 628.396851,187.466949 
	C632.663696,187.466949 636.046387,187.466949 639.550171,187.466949 
	C639.550171,184.885483 639.550171,182.757416 639.593262,179.728653 
M574.426575,178.011292 
	C571.467834,173.552872 567.355713,177.488770 563.221191,175.610229 
	C563.221191,179.503601 563.117859,182.465988 563.290405,185.412201 
	C563.336365,186.195633 564.057556,187.307434 564.760071,187.626144 
	C570.272461,190.126907 574.791687,187.209473 574.604980,181.384201 
	C574.578308,180.553848 574.524719,179.724365 574.426575,178.011292 
M779.068176,176.071228 
	C776.437927,176.071228 773.807739,176.071228 770.884766,176.071228 
	C770.884766,180.079987 770.884766,183.803772 770.884766,187.541824 
	C774.528564,187.541824 777.770996,187.541824 782.189880,187.541824 
	C781.376709,183.390884 780.663940,179.751968 779.068176,176.071228 
z"/>
<path fill="#F6F6F6" opacity="1.000000" stroke="none" 
	d="
M502.938263,394.794464 
	C500.903809,397.246826 498.869354,399.699219 496.397827,402.003998 
	C494.873230,401.675903 493.785736,401.495422 492.698212,401.314941 
	C492.800415,403.923126 487.117157,404.348480 490.152069,408.063202 
	C474.912689,415.603943 459.624023,415.646912 444.206329,408.535461 
	C418.871277,396.849640 400.431213,378.373749 389.094299,352.858002 
	C385.120453,343.914154 381.133301,334.974854 377.314514,325.964691 
	C376.500000,324.042847 375.974762,321.812714 376.022766,319.740997 
	C376.346222,305.786285 376.714630,291.828613 377.423462,277.889923 
	C377.583282,274.747253 378.810211,271.524353 380.133392,268.604614 
	C382.554718,263.261932 385.414215,258.117859 388.090942,252.890961 
	C387.586182,252.497910 387.081451,252.104858 386.576691,251.711807 
	C385.329590,252.922256 383.718292,253.925934 382.894562,255.376770 
	C377.573608,264.748047 372.351959,274.177948 367.250854,283.670868 
	C364.819183,288.196106 362.723938,292.902069 359.808746,297.760040 
	C357.761200,297.996338 356.381195,297.998779 355.000610,298.000610 
	C355.000000,298.000000 354.998779,297.998962 354.971252,297.672913 
	C354.619232,296.540466 354.294708,295.734131 353.998596,294.568970 
	C359.058807,284.294495 363.976715,274.318390 369.186554,264.497192 
	C370.921875,261.225922 370.569427,259.088257 367.071777,257.979767 
	C363.375153,256.808289 359.565918,255.992096 355.378967,254.910416 
	C355.661346,253.886490 355.771881,252.553467 356.371063,251.497787 
	C357.835266,248.918045 357.252106,247.282349 354.713409,245.788452 
	C338.830688,236.442383 323.009796,226.991196 307.134705,217.632050 
	C306.340485,217.163834 305.232666,217.227493 304.270874,217.043503 
	C305.568329,219.408875 307.136780,221.137375 309.054565,222.279190 
	C321.317352,229.580261 333.706909,236.669861 345.912811,244.063354 
	C347.581726,245.074280 349.519440,247.380554 349.532440,249.100693 
	C349.610413,259.410065 349.324829,269.731140 348.836853,280.032959 
	C348.458710,288.015381 347.606842,295.975372 346.976135,303.966370 
	C346.986755,303.987396 346.943604,303.968414 346.536926,303.799011 
	C345.736725,304.738739 345.343262,305.847809 344.974304,306.977234 
	C344.998779,306.997559 344.944000,306.965820 344.593689,306.552856 
	C343.927063,306.313843 343.610718,306.487823 343.109131,306.885803 
	C343.282471,307.406891 343.641083,307.704010 344.383484,308.103577 
	C345.027771,308.158630 345.288269,308.111206 345.872070,308.072388 
	C348.554962,308.729919 350.833588,309.247131 352.774536,306.947205 
	C353.010986,306.667053 354.432892,307.387329 355.305389,307.643951 
	C353.363495,310.949677 354.403046,313.454559 357.203217,315.742493 
	C358.731262,316.990997 359.720734,318.909119 361.270142,320.119232 
	C370.043427,326.971039 370.899872,336.590424 370.881927,346.610321 
	C370.876343,349.743866 371.239380,352.879791 371.475311,356.011475 
	C371.655273,358.400574 372.965302,362.075867 371.922974,362.935120 
	C368.444214,365.802643 365.342712,370.056976 359.394287,368.143341 
	C351.196899,365.506195 342.759155,363.623840 334.458740,361.295593 
	C330.910919,360.300385 328.214142,360.971100 326.822693,364.572723 
	C325.150940,368.899902 323.894318,373.403778 321.990173,377.619873 
	C320.402466,381.135254 318.627197,384.792419 316.064758,387.589539 
	C311.923828,392.109711 307.256073,396.213226 302.434509,400.015533 
	C300.078613,401.873474 296.983063,403.070312 294.032867,403.843140 
	C286.760498,405.748108 279.549622,405.704468 272.027039,403.985107 
	C247.366287,398.348633 229.329193,383.794342 215.043243,363.625031 
	C204.661163,348.967316 196.973984,333.046326 192.018753,315.831177 
	C190.883377,311.886658 190.325836,307.657562 190.258240,303.546967 
	C190.083023,292.895844 190.139709,282.230865 190.528748,271.586945 
	C190.637665,268.606964 192.221237,265.680908 193.483246,262.914734 
	C194.023163,264.927765 194.208191,266.756226 194.403610,268.687347 
	C196.602921,267.959595 198.121689,267.457031 199.519394,267.373962 
	C198.954422,269.211487 198.076431,270.646851 198.132278,272.044891 
	C198.863571,290.349823 196.784668,308.643585 203.836761,326.662628 
	C215.268509,355.872345 232.270996,379.432404 261.633881,392.460205 
	C273.377502,397.670685 284.819336,399.141144 297.437561,393.242584 
	C311.754761,386.549835 314.714996,374.021210 318.966431,360.412811 
	C299.723145,358.002838 281.398102,355.707886 262.483337,353.339050 
	C263.226990,350.308899 263.405121,348.294373 264.202423,346.565338 
	C267.115814,340.247253 265.424652,334.140839 263.297241,328.192200 
	C262.861694,326.974274 260.348694,325.896606 258.737366,325.811371 
	C253.229935,325.519989 247.697571,325.699738 242.022400,325.699738 
	C246.389114,307.975922 250.544006,291.721649 254.358658,275.387939 
	C256.468719,266.352905 258.008911,257.184784 260.109619,247.817123 
	C259.517548,245.874496 258.621826,244.191422 257.726074,242.508347 
	C258.022980,242.334412 258.319916,242.160492 259.519531,242.290604 
	C263.215515,242.397690 266.008820,242.200729 268.823212,242.440918 
	C267.984772,246.431808 268.883179,248.594254 273.087036,248.510468 
	C274.001953,248.902420 274.869080,248.962341 275.736206,249.022263 
	C275.079620,248.325821 274.423035,247.629364 273.772827,246.616577 
	C274.071198,245.514832 274.363190,244.729401 275.065887,243.957672 
	C276.565338,243.986343 277.654053,244.001328 278.766266,244.410156 
	C278.333130,247.998322 276.321289,251.392609 279.975769,254.426575 
	C278.718109,257.739197 277.464203,260.683136 276.289307,264.007446 
	C273.946136,277.760223 271.523956,291.132629 269.000427,305.064606 
	C278.944580,305.582947 288.370422,306.171112 297.805420,306.467133 
	C299.313049,306.514404 300.861725,305.252441 302.391418,304.595703 
	C301.563141,302.967072 301.131104,300.839844 299.830139,299.805939 
	C296.333679,297.027161 292.481934,294.691315 288.742218,292.223633 
	C281.026062,287.132019 281.018921,287.143921 282.817474,277.810272 
	C283.289276,275.361969 284.075104,272.918213 284.117737,270.461945 
	C284.148407,268.694031 283.185150,266.908875 282.986206,264.949036 
	C284.203003,262.486328 285.098846,260.205994 286.086426,257.541168 
	C286.768646,252.090073 287.076141,246.969940 288.020844,241.970230 
	C289.221100,235.618225 284.764130,232.025757 281.990540,226.180573 
	C280.854553,231.763809 280.014740,235.891342 278.771667,240.017761 
	C277.295471,240.007812 276.222565,239.998978 275.128235,239.594177 
	C276.230804,231.103683 277.354736,223.009155 278.478668,214.914627 
	C277.891235,214.744141 277.303772,214.573669 276.716339,214.403198 
	C275.708282,216.692841 274.413269,218.902557 273.748810,221.287918 
	C272.107025,227.182022 270.754181,233.156616 268.959595,238.855621 
	C267.279999,236.688965 269.246307,232.394699 264.533447,232.869659 
	C266.147675,226.439056 267.725555,219.999054 269.388031,213.580933 
	C270.660492,208.668350 268.701050,205.442413 264.551270,202.880402 
	C263.074341,201.968567 262.142944,200.070923 261.152985,198.503036 
	C260.267365,197.100418 259.643768,195.532349 258.215759,193.780426 
	C256.952698,189.705734 256.378387,185.887894 255.804077,182.070053 
	C257.051758,182.812790 258.299438,183.555527 260.028290,184.584686 
	C259.924744,182.851654 259.805145,181.599701 259.782623,180.345993 
	C259.677643,174.504868 260.629486,169.347549 266.031830,165.559402 
	C270.434265,162.472397 274.169098,158.433304 278.894684,154.192993 
	C276.951080,153.603821 275.648895,153.209091 274.186279,152.182770 
	C275.018158,150.383224 276.010406,149.215256 277.376526,148.075378 
	C279.067444,148.493164 280.384521,148.882858 281.701599,149.272552 
	C281.931824,148.889923 282.162048,148.507309 282.392273,148.124680 
	C279.040955,145.049408 275.689606,141.974136 272.338287,138.898865 
	C273.180511,134.669922 274.505737,134.051041 277.491913,136.572540 
	C279.345123,138.137375 281.105621,139.812027 283.675232,142.129623 
	C283.675232,138.917313 283.591980,136.727264 283.691803,134.545593 
	C283.932587,129.282135 283.810028,123.937508 284.782410,118.805305 
	C285.146790,116.882103 288.138672,115.456703 289.932556,113.804337 
	C290.407562,114.189850 290.882568,114.575371 291.357574,114.960884 
	C291.197968,116.376022 291.271851,117.866585 290.842773,119.194664 
	C286.384338,132.994186 293.048492,145.658539 294.890228,158.803986 
	C295.002594,159.606079 296.282806,160.757233 297.129181,160.862198 
	C303.550842,161.658478 309.999817,162.234192 317.304352,162.965134 
	C317.654236,153.786865 318.037567,144.880630 318.315582,135.971115 
	C318.461273,131.302704 318.377869,131.300095 323.691101,129.292023 
	C324.677704,132.370972 325.660461,135.437836 326.789734,138.961975 
	C334.307434,134.243637 340.436920,127.420471 350.669312,129.510254 
	C346.803345,123.736168 343.498871,118.800682 340.194397,113.865196 
	C339.841278,113.962471 339.488159,114.059746 339.135071,114.157021 
	C339.459625,116.327316 339.784180,118.497612 340.108734,120.667908 
	C339.625610,121.021233 339.142517,121.374557 338.659424,121.727882 
	C336.376221,119.058006 333.629150,116.648964 331.939941,113.645058 
	C330.242889,110.627251 328.376160,110.151756 326.124115,112.123070 
	C317.647827,119.542824 309.407471,118.023483 301.100159,111.941086 
	C300.315369,111.366463 299.345306,111.044891 297.494019,110.125473 
	C311.722626,109.455551 327.064606,111.920364 330.249573,93.035538 
	C323.766632,88.986313 314.679596,96.004669 308.962250,86.651306 
	C316.903229,86.651306 323.621185,86.651306 330.830719,86.651306 
	C330.830719,84.221741 331.022675,81.765099 330.790985,79.349083 
	C330.300690,74.236679 332.886688,70.715202 335.916718,66.930161 
	C341.581604,59.853687 349.076294,60.904205 356.488647,61.363094 
	C371.471008,62.290646 381.390747,70.893333 388.975311,83.046425 
	C390.998749,86.288666 393.740295,89.199501 392.227478,93.432152 
	C391.445618,95.619698 390.936493,98.317177 389.361298,99.741562 
	C379.373260,108.773193 379.286346,108.677071 377.823730,122.052116 
	C369.664001,120.238838 368.198456,127.275154 363.837280,132.825424 
	C368.756653,133.126328 370.600647,139.755157 375.694000,136.546356 
	C378.851746,134.557022 381.029327,131.078674 383.977753,128.674561 
	C388.356995,125.103813 383.682678,121.716621 385.290192,117.697250 
	C387.121857,121.666107 389.313324,125.512527 390.714020,129.628067 
	C394.148376,139.719131 399.804443,148.364792 406.618286,156.447647 
	C411.858337,162.663605 416.376221,169.502258 421.777344,175.563080 
	C424.852966,179.014374 429.056824,181.460175 432.651276,184.908356 
	C433.297241,187.106583 434.044556,188.755203 434.419983,190.607559 
	C429.971130,189.392975 429.466736,191.331543 430.314331,194.702972 
	C431.362610,198.872803 433.587402,201.608994 438.195312,201.958267 
	C440.476929,202.131210 442.732025,202.654236 445.057861,203.350708 
	C445.749481,204.017410 446.378174,204.361557 447.030548,204.652740 
	C447.056183,204.664169 447.307648,204.169662 447.453888,203.910889 
	C446.783295,203.537399 446.112671,203.163910 445.520508,202.455658 
	C443.750031,199.540619 441.901062,196.960358 440.385284,194.240509 
	C442.513275,192.762711 443.087708,191.547867 440.622498,190.212418 
	C439.904846,189.823654 439.532867,188.796768 439.002472,188.062408 
	C441.626129,189.394608 444.249756,190.726837 446.879913,192.693665 
	C445.480011,196.052216 447.396118,195.951202 449.148834,195.989120 
	C452.182190,201.676895 455.254395,207.344696 458.202271,213.076447 
	C458.593018,213.836166 458.699921,215.090988 458.342255,215.826706 
	C456.707520,219.189148 446.566772,224.491852 442.767181,224.079224 
	C438.468506,223.612427 434.176880,222.635986 429.886322,222.658737 
	C425.113556,222.684036 423.990540,220.285339 423.998413,215.973801 
	C425.811127,216.071457 427.391174,216.156570 430.220703,216.309006 
	C426.405243,212.265625 423.279480,208.842987 420.033112,205.538879 
	C415.255951,200.676682 410.378998,195.912613 405.572632,191.078857 
	C403.540497,189.035156 401.621033,188.340866 399.192657,190.660034 
	C396.560791,193.173508 393.545441,195.286575 390.925446,197.811050 
	C386.712036,201.870895 386.791199,201.953049 381.719116,199.298950 
	C378.206421,201.637741 377.662872,204.504593 380.075958,208.038315 
	C387.262787,218.562622 394.265564,229.218643 401.727875,239.543045 
	C403.020203,241.331039 406.132721,242.423676 408.527405,242.677353 
	C415.465485,243.412354 422.470490,243.493835 429.439728,243.970398 
	C431.579742,244.116714 433.892578,244.278671 435.779602,245.168549 
	C447.752319,250.814560 460.239258,255.597183 469.326965,266.013245 
	C474.461731,271.898529 480.083649,277.360504 485.519287,282.981110 
	C494.082855,291.836060 497.740784,303.435425 502.737854,314.226685 
	C505.847137,320.941284 507.838531,328.173584 509.910706,335.646729 
	C509.097778,337.859497 508.705780,339.599060 508.313782,341.338654 
	C508.777954,341.443268 509.242096,341.547882 509.706238,341.652496 
	C509.993286,340.294922 510.280365,338.937347 510.567444,337.579803 
	C511.690857,346.211548 512.814270,354.843292 513.327637,363.792969 
	C511.833588,364.806610 510.949493,365.502350 510.065369,366.198059 
	C510.890808,367.177368 511.716217,368.156677 512.541626,369.136017 
	C512.353394,369.977264 512.165222,370.818512 511.438416,371.886841 
	C510.077454,372.300507 509.255035,372.487122 508.432648,372.673737 
	C508.438629,372.917908 508.444641,373.162109 508.450653,373.406311 
	C509.312195,373.603912 510.173767,373.801483 511.035309,373.999084 
	C510.842407,375.146667 510.649536,376.294250 509.870728,377.656677 
	C507.131927,377.229034 504.979004,376.586517 502.843445,375.505371 
	C503.109161,372.412628 503.550446,369.760193 503.573303,367.104156 
	C503.683228,354.341156 505.273773,341.556885 501.050323,328.974762 
	C496.307007,314.844025 489.768433,301.907959 480.961914,289.762482 
	C467.097198,270.640991 449.922791,256.586945 426.780029,250.980362 
	C421.515991,249.705093 415.625824,251.014557 408.601654,251.164734 
	C416.270538,264.335480 422.643463,276.002167 429.715607,287.228394 
	C437.151306,299.031769 445.307648,310.379669 452.992340,322.029999 
	C453.794922,323.246735 454.168671,326.278564 453.663544,326.564575 
	C451.279175,327.914581 449.949738,326.459259 448.839783,324.102905 
	C447.220520,320.665375 445.235626,317.367767 443.120239,314.201843 
	C434.449646,301.225281 425.541901,288.405579 416.982880,275.356659 
	C412.376526,268.333893 408.299530,260.963898 403.969452,253.726761 
	C397.108337,258.538330 397.114929,258.535553 400.022003,265.467499 
	C403.944550,274.820770 408.102753,284.084625 411.712341,293.557404 
	C416.789642,306.882141 422.532837,319.606598 434.197632,328.778564 
	C435.763458,330.009796 435.670074,333.351196 436.345032,335.715424 
	C435.804199,335.901855 435.263336,336.088318 434.722504,336.274780 
	C427.588226,328.077515 419.739594,320.537933 415.022461,310.332520 
	C408.479736,296.177429 401.414124,282.263489 394.516418,268.273895 
	C393.929779,267.084167 392.922180,266.101959 391.922302,264.773804 
	C390.934174,266.036621 390.316437,266.625702 389.937439,267.341248 
	C385.946930,274.875732 382.328766,282.499481 383.195679,291.423370 
	C384.627472,306.162506 381.235199,321.511505 389.132080,335.436005 
	C391.747498,340.047791 393.746368,345.012451 395.976410,349.839172 
	C406.998230,373.694305 423.646301,391.935242 448.318268,402.074677 
	C456.568726,405.465363 465.385010,408.165802 474.010590,405.199951 
	C484.834412,401.478271 495.088257,396.206329 498.970276,383.889618 
	C499.408752,382.498413 500.449280,381.296906 501.545410,380.058136 
	C502.312408,381.251587 503.436310,383.047638 503.069641,383.435913 
	C499.442139,387.276672 501.209259,391.003693 502.938263,394.794464 
M326.786987,322.190186 
	C328.706238,317.935577 326.445557,315.108795 323.603943,312.389862 
	C323.005676,316.913300 322.939880,321.317841 323.102600,325.713928 
	C323.119751,326.177368 324.481323,326.591095 325.819702,327.077667 
	C328.072571,325.992065 330.325439,324.906464 333.313629,323.362579 
	C333.993927,324.157837 334.674194,324.953064 335.823792,326.296936 
	C338.463623,321.791504 340.822327,317.765839 343.511749,313.175720 
	C339.079010,313.175720 335.725922,313.175720 332.556030,313.175720 
	C332.556030,316.653320 332.556030,319.731812 332.248322,322.428467 
	C332.094147,322.455383 331.939941,322.482330 331.785767,322.509247 
	C332.030609,322.715179 332.275421,322.921082 332.658142,323.408569 
	C332.658142,323.408569 332.503143,323.681061 331.638641,323.784454 
	C329.975830,323.500885 328.312988,323.217316 326.786987,322.190186 
M269.903381,253.883759 
	C269.859375,253.001831 269.815399,252.119904 269.771393,251.237961 
	C268.502441,252.113297 267.233521,252.988617 265.852936,254.628693 
	C261.150238,272.779480 256.438110,290.927795 251.749161,309.082153 
	C249.686066,317.069916 251.481873,320.005005 260.067352,322.421173 
	C259.967865,321.197571 260.076508,320.016205 259.752228,318.968933 
	C258.102112,313.639587 258.984558,309.033234 262.655304,304.653168 
	C264.599274,302.333557 266.514954,299.365997 266.910858,296.480682 
	C268.671234,283.650787 269.920258,270.749115 271.204041,257.858459 
	C271.307556,256.818909 270.273804,255.666077 269.903381,253.883759 
M366.888489,199.818817 
	C366.468597,196.023697 366.048676,192.228577 365.470703,187.004745 
	C377.903351,194.664200 387.514954,189.026276 397.148102,183.399643 
	C388.674652,167.167145 378.639801,152.357513 365.763458,139.611877 
	C364.031952,137.897980 362.108826,135.711349 359.938538,135.216415 
	C347.009277,132.267853 336.249939,137.454407 326.363159,145.117645 
	C325.416138,145.851685 324.852051,147.318649 324.509613,148.555923 
	C321.827972,158.244766 319.475983,167.965546 324.199188,178.523544 
	C324.740601,175.836182 325.165833,173.725494 325.606140,171.539825 
	C332.759979,175.049881 333.751251,176.475189 333.033752,183.199326 
	C332.505402,188.150497 331.522583,193.052078 330.946686,197.999557 
	C330.121887,205.085068 332.762299,209.333847 340.262756,212.893829 
	C339.282867,210.638748 338.455170,208.733856 337.283356,206.036987 
	C341.406342,206.545639 344.669403,206.423355 347.558075,207.403992 
	C355.887543,210.231583 362.417328,208.851471 366.888489,199.818817 
M303.785187,354.785919 
	C308.833801,355.369781 313.882385,355.953674 318.900574,356.534027 
	C318.900574,351.355530 318.786774,346.252502 318.943268,341.157806 
	C319.037079,338.104431 317.973053,336.811920 314.810150,336.331085 
	C303.829834,334.661926 292.915436,332.563782 281.946564,330.813080 
	C271.949402,329.217468 271.932556,329.323090 269.424774,339.001862 
	C267.413513,346.764191 269.546967,349.968140 277.753754,351.180359 
	C286.125397,352.416931 294.518402,353.508514 303.785187,354.785919 
M319.678284,277.274841 
	C321.207794,267.604645 322.776733,257.940369 324.226288,248.258209 
	C324.456146,246.722961 324.792419,244.404831 323.973816,243.653839 
	C320.915527,240.848129 317.397400,238.543610 313.831177,235.886780 
	C303.349457,263.724640 305.155609,275.679993 321.304169,285.699951 
	C320.759949,282.906006 320.297333,280.530975 319.678284,277.274841 
M304.590515,311.917114 
	C296.247894,310.618469 287.921631,309.187988 279.546906,308.147766 
	C278.110138,307.969299 275.569489,309.084442 275.092163,310.242371 
	C273.815552,313.339233 276.591553,314.090637 278.846924,314.697388 
	C286.536377,316.766113 294.214294,318.894196 301.961426,320.725342 
	C306.088409,321.700836 310.348724,322.112366 314.519653,322.773834 
	C316.203827,317.369019 315.347290,314.074677 309.671234,313.402679 
	C308.211121,313.229797 306.809204,312.565216 304.590515,311.917114 
M359.936462,216.142532 
	C354.346222,216.142532 348.756012,216.142532 343.165771,216.142532 
	C343.048920,216.556244 342.932098,216.969971 342.815247,217.383682 
	C349.839111,222.041382 356.760010,226.866623 363.935394,231.277939 
	C366.991516,233.156784 370.505341,234.407791 373.954224,235.487091 
	C376.005676,236.129059 378.714874,235.368256 377.088135,232.555405 
	C373.144745,225.736755 369.108154,218.767395 359.936462,216.142532 
M327.163696,355.200104 
	C329.865479,359.994934 334.113464,356.650665 338.174530,357.243988 
	C329.922485,350.432190 329.710419,340.709351 327.287384,331.303925 
	C325.521667,332.836029 323.836060,334.636139 324.009399,336.234741 
	C324.669800,342.325012 325.929962,348.350250 327.163696,355.200104 
M297.942566,324.689026 
	C291.735870,322.863251 285.564972,320.894958 279.294983,319.321503 
	C277.892792,318.969635 276.143097,320.002350 274.553406,320.397614 
	C275.628204,321.554413 276.523682,323.426422 277.807770,323.748352 
	C284.565735,325.442749 291.400024,326.863251 298.253113,328.134735 
	C301.668793,328.768433 305.181213,328.880554 308.649872,329.228638 
	C308.729309,328.750824 308.808746,328.273041 308.888153,327.795227 
	C305.503052,326.820801 302.117950,325.846344 297.942566,324.689026 
M355.989227,320.501678 
	C354.885742,319.636505 353.782257,318.771362 351.848511,317.255280 
	C349.805054,322.000458 348.052704,326.069580 346.263519,330.224243 
	C353.240906,332.533203 358.191803,331.678955 364.139099,326.729858 
	C361.514038,324.744019 359.020264,322.857513 355.989227,320.501678 
M370.013763,87.416084 
	C370.532166,88.201530 371.050598,88.986977 371.648712,89.893173 
	C374.657562,87.744797 374.927155,85.508888 372.564880,83.111298 
	C368.481171,78.966454 364.201050,75.010246 360.213776,70.776680 
	C356.221283,66.537537 351.523346,66.308861 344.861603,67.558914 
	C355.116791,72.877403 364.710510,77.031029 370.013763,87.416084 
M292.868317,164.643265 
	C292.815979,164.156891 292.763641,163.670502 292.711273,163.184128 
	C289.514404,172.063934 291.514893,180.947754 292.709442,189.803391 
	C293.916901,198.754684 293.178101,208.476929 302.625946,215.191742 
	C294.462341,199.068878 294.176727,182.147659 292.868317,164.643265 
M365.433014,335.241608 
	C361.949066,334.903229 358.465149,334.564850 354.981201,334.226471 
	C354.741913,334.759766 354.502594,335.293091 354.263306,335.826385 
	C357.302917,339.899994 360.342529,343.973633 363.382141,348.047272 
	C363.990051,347.881592 364.597961,347.715942 365.205902,347.550262 
	C365.451324,343.689178 365.696716,339.828094 365.433014,335.241608 
M346.073242,82.454231 
	C350.190613,88.114380 351.479034,88.658844 358.874939,87.179665 
	C353.249481,82.898186 348.218567,79.069229 343.187683,75.240280 
	C342.792603,75.629890 342.397522,76.019501 342.002441,76.409111 
	C343.219788,78.229294 344.437164,80.049477 346.073242,82.454231 
M359.829437,288.066589 
	C359.585663,288.212311 359.216309,288.310669 359.137848,288.518738 
	C359.075226,288.684814 359.367065,288.984528 359.501556,289.224915 
	C359.636780,288.984222 359.772003,288.743561 359.829437,288.066589 
M266.421997,250.483932 
	C266.421997,250.483932 266.525299,250.424911 266.421997,250.483932 
M325.400238,329.479523 
	C325.400238,329.479523 325.513824,329.411560 325.400238,329.479523 
z"/>
<path fill="#F9F9F9" opacity="1.000000" stroke="none" 
	d="
M510.691589,245.844788 
	C510.689728,221.426224 510.689728,197.486694 510.689728,172.493484 
	C520.262390,172.957092 529.213501,172.945847 538.024658,174.050766 
	C541.249451,174.455154 544.827209,176.907471 547.062561,179.460098 
	C554.883911,188.391617 552.482849,204.043091 542.410950,210.750412 
	C553.867371,217.062683 555.235840,227.302994 553.056580,238.609482 
	C551.167480,248.410294 545.314087,253.869965 535.329956,254.605743 
	C527.402283,255.189972 519.397156,254.723434 510.693481,254.723434 
	C510.693481,251.859406 510.693481,249.091614 510.691589,245.844788 
M531.954529,216.047440 
	C528.984131,216.047440 526.013733,216.047440 522.456909,216.047440 
	C522.456909,225.214691 522.508057,234.178635 522.427612,243.141403 
	C522.401428,246.063919 523.912415,246.706253 526.466492,246.818039 
	C538.624451,247.350128 544.028076,241.546036 542.517456,229.394104 
	C541.744751,223.178329 540.276917,217.455841 531.954529,216.047440 
M530.058594,181.412170 
	C527.639648,181.412170 525.220703,181.412170 522.565430,181.412170 
	C522.565430,190.176437 522.565430,198.419479 522.565430,206.621262 
	C534.921814,208.319061 540.100586,205.620667 541.162537,197.125854 
	C542.457092,186.770737 539.757324,182.667603 530.058594,181.412170 
z"/>
<path fill="#FBFBFB" opacity="1.000000" stroke="none" 
	d="
M255.733200,181.662842 
	C256.378387,185.887894 256.952698,189.705734 257.833344,193.792572 
	C258.030731,196.017105 257.921783,197.972641 257.784210,200.442017 
	C242.832153,195.175201 229.897552,188.013443 222.718445,173.361954 
	C222.019577,171.935669 221.631851,170.190262 221.659210,168.602615 
	C221.805450,160.118546 222.676071,151.607147 222.206635,143.165787 
	C221.874542,137.194702 224.152725,133.764221 229.023209,131.260300 
	C230.334061,130.586380 231.540573,129.709518 233.129288,128.716949 
	C236.891098,132.697678 240.293686,137.025864 244.416138,140.499771 
	C251.621994,146.572037 258.840759,152.939270 269.083984,153.349335 
	C269.815369,153.378616 270.527344,153.893036 271.951141,154.463486 
	C262.429871,161.300613 257.454559,170.359680 255.733200,181.662842 
M253.580368,181.516663 
	C253.580368,181.516663 253.477631,181.576447 253.580368,181.516663 
z"/>
<path fill="#F7F7F7" opacity="1.000000" stroke="none" 
	d="
M726.442017,254.778168 
	C725.718506,252.880722 725.187256,251.130692 725.176025,249.377335 
	C725.093994,236.559021 725.147156,223.739914 725.087280,210.921371 
	C725.069031,207.019745 725.015869,202.560822 719.672119,202.556442 
	C714.545593,202.552246 710.737671,206.604599 710.876343,211.361862 
	C711.244751,224.002609 710.953552,236.662582 710.925903,249.314896 
	C710.922363,250.947296 710.925476,252.579712 710.925476,254.570160 
	C707.605896,254.570160 704.722900,254.570160 701.363281,254.570160 
	C701.363281,235.288467 701.363281,216.082611 701.363281,196.480164 
	C704.305176,196.480164 707.216003,196.480164 710.470337,196.480164 
	C710.771484,197.664154 711.113708,199.009659 711.497620,200.519363 
	C719.342529,195.540771 727.057983,191.380722 734.006165,201.069870 
	C737.475159,199.354294 740.792480,196.864288 744.478394,196.056915 
	C753.927124,193.987274 758.465637,197.609879 758.779236,207.285324 
	C759.140259,218.428574 758.999084,229.588318 759.059387,240.740982 
	C759.083557,245.201660 759.063293,249.662582 759.063293,254.282471 
	C757.686584,254.529282 756.740967,254.800323 755.783081,254.854172 
	C749.159607,255.226593 749.143799,255.212082 749.140381,248.705093 
	C749.133911,236.552155 749.153381,224.399216 749.149109,212.246277 
	C749.146545,204.854691 747.787903,202.513107 743.532715,202.484711 
	C738.362000,202.450195 735.044800,206.510178 735.046387,212.918610 
	C735.049255,225.071548 735.070007,237.224472 735.082703,249.377411 
	C735.084351,251.009247 735.082886,252.641068 735.082886,254.924042 
	C732.074219,254.924042 729.474670,254.924042 726.442017,254.778168 
z"/>
<path fill="#F5F5F5" opacity="1.000000" stroke="none" 
	d="
M819.008240,244.765915 
	C825.751892,247.447678 828.905823,252.204086 828.572327,258.691528 
	C828.244873,265.062927 824.310913,270.820862 817.599487,271.758484 
	C811.021545,272.677490 803.973572,272.615234 797.493042,271.258484 
	C788.908508,269.461334 786.860718,261.780945 792.220642,254.753311 
	C793.315186,253.318253 794.690857,252.097687 795.934204,250.781174 
	C790.248535,244.363358 790.577393,241.828400 798.405212,234.012741 
	C791.928894,228.049225 790.973267,220.249863 791.918030,212.040131 
	C792.690796,205.325943 794.926086,199.008316 801.823792,196.517258 
	C808.636963,194.056717 815.333618,194.704239 820.357300,200.985184 
	C822.330627,199.554092 824.150940,198.147919 826.059082,196.873215 
	C828.169312,195.463516 830.007996,195.241562 831.206970,198.136215 
	C832.287659,200.745392 832.265564,202.569931 828.963562,203.304840 
	C827.052917,203.730103 825.241577,204.601501 824.172791,204.987640 
	C824.172791,211.150558 824.793030,216.960739 824.039490,222.586929 
	C822.611755,233.246674 816.949768,237.450745 806.214111,236.984329 
	C804.090393,236.892059 801.225342,235.598694 801.045715,239.501587 
	C800.864136,243.447586 803.885742,242.778763 806.272522,243.068787 
	C810.391235,243.569214 814.502075,244.134766 819.008240,244.765915 
M801.221375,215.576096 
	C801.552124,218.528641 801.257446,221.761368 802.414368,224.343796 
	C803.315735,226.355728 805.876038,228.505234 807.973328,228.831726 
	C809.764404,229.110550 813.537354,227.057327 813.682190,225.734375 
	C814.354370,219.596115 814.513489,213.303024 813.826782,207.180832 
	C813.644775,205.558792 809.790955,203.252884 807.648499,203.279892 
	C805.807373,203.303116 803.461304,205.905060 802.339355,207.923126 
	C801.292908,209.805389 801.564697,212.420547 801.221375,215.576096 
M803.172607,263.812561 
	C807.119202,263.766083 811.198547,264.297241 814.957092,263.432892 
	C816.877991,262.991180 819.290466,260.156036 819.487061,258.202057 
	C819.640381,256.678711 816.992249,253.921936 815.096619,253.352417 
	C811.697144,252.331085 807.774536,251.805069 804.369141,252.511520 
	C802.288513,252.943130 800.197693,255.794266 799.141296,258.042572 
	C797.939514,260.600281 799.312134,262.837067 803.172607,263.812561 
z"/>
<path fill="#F7F7F7" opacity="1.000000" stroke="none" 
	d="
M681.097656,247.958099 
	C678.530579,233.834732 678.530518,233.832916 664.679077,234.172897 
	C664.025757,234.188934 663.374451,234.286789 662.314209,234.383881 
	C661.284668,239.005981 659.742371,243.599838 659.351379,248.289673 
	C658.887451,253.855316 656.517822,255.948608 651.134216,254.928329 
	C650.195129,254.750381 649.209351,254.819397 647.535950,254.741196 
	C648.808838,248.097275 649.912842,241.790604 651.235901,235.530243 
	C655.387817,215.885117 659.682068,196.269806 663.753357,176.608215 
	C664.299011,173.972931 665.274292,172.815567 667.954651,172.953003 
	C670.430298,173.079941 672.917542,172.980011 675.851379,172.980011 
	C681.667175,200.151657 687.446350,227.152374 693.223877,254.145462 
	C683.725342,256.326294 682.860840,255.886627 681.097656,247.958099 
M673.223267,225.999710 
	C674.427490,225.877548 675.631714,225.755386 676.907104,225.626007 
	C674.867249,214.403748 672.903809,203.602036 670.940430,192.800323 
	C670.567932,192.816818 670.195435,192.833298 669.822937,192.849777 
	C667.775696,203.753677 665.728455,214.657578 663.600037,225.993896 
	C667.002075,225.993896 669.651855,225.993896 673.223267,225.999710 
z"/>
<path fill="#F7F7F7" opacity="1.000000" stroke="none" 
	d="
M866.795166,248.681641 
	C862.098145,255.935196 855.540039,256.720123 848.161072,255.230103 
	C841.212463,253.826996 836.861572,249.306763 836.593079,242.642914 
	C836.113892,230.745438 836.125488,218.739502 837.227600,206.899521 
	C837.912354,199.542496 844.070068,195.698486 851.924011,195.295975 
	C859.444275,194.910583 866.151001,198.123413 867.816650,204.778152 
	C871.440186,219.254761 872.327515,233.934402 866.795166,248.681641 
M846.729065,231.477310 
	C846.775391,234.472717 846.700989,237.476120 846.898315,240.461548 
	C847.150757,244.281174 848.400330,247.312866 853.081482,247.250626 
	C857.571045,247.190918 858.729431,244.187973 858.788330,240.596802 
	C858.949524,230.778702 858.993958,220.956131 858.889099,211.137436 
	C858.845886,207.095535 857.174377,203.750336 852.555298,203.715424 
	C847.864136,203.679977 847.040710,207.280426 846.955444,211.010590 
	C846.807129,217.500061 846.797302,223.992676 846.729065,231.477310 
z"/>
<path fill="#F5F5F5" opacity="1.000000" stroke="none" 
	d="
M585.163452,228.983765 
	C585.407837,222.176819 585.301147,215.828751 585.969360,209.563324 
	C587.311401,196.979111 601.281555,190.390366 611.722595,197.687958 
	C614.614563,199.709259 616.422241,203.853745 617.726868,207.392914 
	C618.766724,210.214249 618.284973,213.596512 618.499084,217.060486 
	C615.227295,217.060486 612.297302,217.060486 608.858948,217.060486 
	C608.568848,214.397827 608.313721,211.650055 607.960327,208.914978 
	C607.509338,205.424042 605.722534,203.665359 601.947571,203.805084 
	C598.333435,203.938843 596.854919,205.676254 596.811707,209.073654 
	C596.678589,219.540207 596.434326,230.006714 596.446472,240.472992 
	C596.450867,244.243591 597.716370,247.425674 602.433960,247.374054 
	C605.489014,247.340622 607.601868,246.159271 607.919739,242.864777 
	C608.221741,239.734848 608.432617,236.596146 608.707214,233.166199 
	C611.919617,233.166199 614.967712,233.166199 618.900391,233.166199 
	C618.259277,237.772324 618.213928,242.311279 616.918030,246.459641 
	C614.763062,253.358093 608.575806,256.666718 600.763733,256.002075 
	C592.799866,255.324509 587.251648,250.623276 586.039673,242.896637 
	C585.348083,238.487061 585.429504,233.956223 585.163452,228.983765 
z"/>
<path fill="#F2F2F1" opacity="1.000000" stroke="none" 
	d="
M628.470703,218.000458 
	C628.475769,210.555328 628.475769,203.610336 628.475769,196.693512 
	C629.278931,196.414139 629.721069,196.134125 630.170044,196.122787 
	C639.596985,195.884644 639.611938,195.890579 639.618896,205.385269 
	C639.630859,221.655975 639.622192,237.926666 639.622192,254.587860 
	C635.754578,254.587860 632.533691,254.587860 628.465637,254.587860 
	C628.465637,242.623749 628.465637,230.562164 628.470703,218.000458 
z"/>
<path fill="#EEEEEE" opacity="1.000000" stroke="none" 
	d="
M770.472168,209.019623 
	C770.483154,207.525146 770.487183,206.526794 770.487671,205.528458 
	C770.492004,195.677475 770.491821,195.677475 781.735107,196.389572 
	C781.735107,203.072617 781.742737,209.828934 781.733398,216.585220 
	C781.718018,227.732513 781.404297,238.889832 781.793396,250.022766 
	C781.982788,255.440979 778.872009,254.616608 775.510254,254.938217 
	C771.463379,255.325348 770.305664,253.805573 770.355286,249.944000 
	C770.528503,236.469681 770.447754,222.992111 770.472168,209.019623 
z"/>
<path fill="#F5F5F5" opacity="1.000000" stroke="none" 
	d="
M563.224854,213.003113 
	C563.226929,207.221252 563.226929,201.938721 563.226929,196.366562 
	C567.193848,196.366562 570.448486,196.366562 574.077393,196.366562 
	C574.077393,215.619934 574.077393,234.965668 574.077393,254.244705 
	C573.252258,254.529175 572.800049,254.791656 572.328918,254.831772 
	C563.258484,255.603561 563.248901,255.598190 563.237244,246.427582 
	C563.223206,235.452560 563.226807,224.477493 563.224854,213.003113 
z"/>
<path fill="#F2F2F1" opacity="1.000000" stroke="none" 
	d="
M199.640457,266.954468 
	C198.121689,267.457031 196.602921,267.959595 194.403610,268.687347 
	C194.208191,266.756226 194.023163,264.927765 193.769958,262.640289 
	C198.287567,250.662109 205.533951,240.869629 217.074661,236.393951 
	C226.451843,232.757339 236.920288,230.815475 246.925201,235.649475 
	C250.532318,237.392288 253.852295,239.729401 257.129456,242.275360 
	C256.957550,242.944763 256.959473,243.134079 256.961365,243.323395 
	C257.142975,243.113831 257.324585,242.904266 257.506165,242.694733 
	C257.506195,242.694733 257.692230,242.553604 257.709167,242.530975 
	C258.621826,244.191422 259.517548,245.874496 259.738037,247.782990 
	C251.443466,245.812500 243.881821,243.380203 236.184937,241.502274 
	C230.887192,240.209686 226.091156,241.669266 221.028137,244.245987 
	C210.992050,249.353683 204.457413,257.211670 199.640457,266.954468 
z"/>
<path fill="#EEEEEE" opacity="1.000000" stroke="none" 
	d="
M282.994141,97.006409 
	C272.911224,101.742714 262.993774,106.013016 253.608368,111.238823 
	C250.339340,113.059029 248.293076,117.170822 245.874847,120.376709 
	C244.899414,121.669838 244.410873,123.334068 243.723160,124.839645 
	C241.789139,129.073730 239.255356,129.218781 236.355759,126.120949 
	C240.892715,108.550812 253.729874,100.334602 270.027679,96.153488 
	C276.553497,94.479324 283.169891,93.158318 289.745087,91.676567 
	C289.937256,92.115906 290.129425,92.555244 290.321625,92.994591 
	C288.003998,94.301704 285.686371,95.608826 282.994141,97.006409 
z"/>
<path fill="#E5E4E4" opacity="1.000000" stroke="none" 
	d="
M206.872864,398.222717 
	C208.324005,400.709747 208.609985,403.005890 204.807785,402.685486 
	C187.143570,401.196808 169.496017,399.510193 151.844284,397.875214 
	C151.775497,397.868835 151.732605,397.583069 151.576401,397.141968 
	C162.476471,397.141968 173.278442,397.141968 184.947083,397.237366 
	C192.833466,397.629425 199.853165,397.926056 206.872864,398.222717 
z"/>
<path fill="#EAEBE9" opacity="1.000000" stroke="none" 
	d="
M184.921326,394.270050 
	C184.323746,393.117462 183.726166,391.964905 183.128601,390.812317 
	C184.289154,390.388245 185.507065,389.484436 186.601273,389.615234 
	C196.176346,390.760132 205.737610,392.031372 215.285370,393.389038 
	C220.170822,394.083771 225.020325,395.031464 229.886063,395.864838 
	C229.848068,396.350922 229.810074,396.837006 229.772064,397.323059 
	C222.498962,396.958008 215.225861,396.592957 207.091583,396.122253 
	C199.127396,395.434448 192.024368,394.852264 184.921326,394.270050 
z"/>
<path fill="#EAEBE9" opacity="1.000000" stroke="none" 
	d="
M277.002686,148.047302 
	C276.010406,149.215256 275.018158,150.383224 273.959839,151.902252 
	C264.024658,149.883530 257.335510,143.256653 251.024673,134.908264 
	C253.923447,134.008835 256.584442,133.183182 258.638947,132.545715 
	C260.728638,135.696838 262.449371,138.291641 264.710510,141.270065 
	C269.168121,143.784882 273.085419,145.916092 277.002686,148.047302 
z"/>
<path fill="#E5E4E4" opacity="1.000000" stroke="none" 
	d="
M421.742798,409.291809 
	C409.483368,408.233887 397.633179,407.151001 385.782959,406.068146 
	C385.859741,405.294403 385.936554,404.520630 386.013336,403.746887 
	C399.774963,400.489960 412.606354,406.924561 425.949127,408.735382 
	C424.683411,408.912567 423.417694,409.089722 421.742798,409.291809 
z"/>
<path fill="#E5E4E4" opacity="1.000000" stroke="none" 
	d="
M639.571716,180.178986 
	C639.550171,182.757416 639.550171,184.885483 639.550171,187.466949 
	C636.046387,187.466949 632.663696,187.466949 628.396851,187.466949 
	C628.396851,184.526550 628.354370,181.325348 628.436157,178.127319 
	C628.450867,177.554367 628.960693,176.514771 629.273376,176.502655 
	C632.528870,176.376663 635.795593,176.343475 639.041687,176.554184 
	C639.293091,176.570526 639.412476,178.622711 639.571716,180.178986 
z"/>
<path fill="#E5E4E4" opacity="1.000000" stroke="none" 
	d="
M574.455078,178.452881 
	C574.524719,179.724365 574.578308,180.553848 574.604980,181.384201 
	C574.791687,187.209473 570.272461,190.126907 564.760071,187.626144 
	C564.057556,187.307434 563.336365,186.195633 563.290405,185.412201 
	C563.117859,182.465988 563.221191,179.503601 563.221191,175.610229 
	C567.355713,177.488770 571.467834,173.552872 574.455078,178.452881 
z"/>
<path fill="#EEEEEE" opacity="1.000000" stroke="none" 
	d="
M779.509644,176.092133 
	C780.663940,179.751968 781.376709,183.390884 782.189880,187.541824 
	C777.770996,187.541824 774.528564,187.541824 770.884766,187.541824 
	C770.884766,183.803772 770.884766,180.079987 770.884766,176.071228 
	C773.807739,176.071228 776.437927,176.071228 779.509644,176.092133 
z"/>
<path fill="#F2F2F1" opacity="1.000000" stroke="none" 
	d="
M502.826111,375.943970 
	C504.979004,376.586517 507.131927,377.229034 509.653687,377.936157 
	C507.860535,383.498901 505.698517,388.997070 503.237396,394.644836 
	C501.209259,391.003693 499.442139,387.276672 503.069641,383.435913 
	C503.436310,383.047638 502.312408,381.251587 501.561768,379.736816 
	C501.770935,378.224518 502.298553,377.084259 502.826111,375.943970 
M504.483948,379.583313 
	C504.483948,379.583313 504.422302,379.477661 504.483948,379.583313 
z"/>
<path fill="#EAEBE9" opacity="1.000000" stroke="none" 
	d="
M355.574249,307.413940 
	C354.432892,307.387329 353.010986,306.667053 352.774536,306.947205 
	C350.833588,309.247131 348.554962,308.729919 345.934387,307.680237 
	C345.430298,307.174957 345.187164,307.070404 344.944000,306.965820 
	C344.944000,306.965820 344.998779,306.997559 345.339111,307.332855 
	C346.100800,306.434906 346.522217,305.201660 346.943604,303.968414 
	C346.943604,303.968414 346.986755,303.987396 347.192780,304.338318 
	C348.554626,303.372467 349.710449,302.055695 351.014282,300.977112 
	C351.632263,301.153290 352.102203,301.091278 352.572144,301.029297 
	C352.116943,300.691284 351.661743,300.353241 351.272858,299.694885 
	C352.216187,297.892303 353.093201,296.410034 353.970184,294.927765 
	C354.294708,295.734131 354.619232,296.540466 354.832947,297.726074 
	C354.815186,298.070648 354.908173,298.035919 355.001190,298.001221 
	C356.381195,297.998779 357.761200,297.996338 359.555176,297.995819 
	C358.593811,301.059814 357.218475,304.121857 355.574249,307.413940 
z"/>
<path fill="#100E10" opacity="1.000000" stroke="none" 
	d="
M277.376526,148.075378 
	C273.085419,145.916092 269.168121,143.784882 265.057495,141.360291 
	C267.084076,140.360291 269.303986,139.653656 271.931091,138.922943 
	C275.689606,141.974136 279.040955,145.049408 282.392273,148.124680 
	C282.162048,148.507309 281.931824,148.889923 281.701599,149.272552 
	C280.384521,148.882858 279.067444,148.493164 277.376526,148.075378 
z"/>
<path fill="#3B383B" opacity="1.000000" stroke="none" 
	d="
M184.958801,394.616333 
	C192.024368,394.852264 199.127396,395.434448 206.658112,396.156616 
	C207.029541,396.723511 206.973267,397.150391 206.894928,397.900024 
	C199.853165,397.926056 192.833466,397.629425 185.414200,397.185242 
	C185.008514,396.346008 185.002380,395.654297 184.958801,394.616333 
z"/>
<path fill="#F2F2F1" opacity="1.000000" stroke="none" 
	d="
M264.308746,233.160675 
	C269.246307,232.394699 267.279999,236.688965 268.979431,239.227264 
	C269.150604,240.562698 268.976349,241.283234 268.802124,242.003769 
	C266.008820,242.200729 263.215515,242.397690 260.029022,242.373077 
	C264.295074,240.875732 262.374207,236.235519 264.308746,233.160675 
z"/>
<path fill="#EEEEEE" opacity="1.000000" stroke="none" 
	d="
M438.718719,187.883011 
	C439.532867,188.796768 439.904846,189.823654 440.622498,190.212418 
	C443.087708,191.547867 442.513275,192.762711 440.118011,194.102081 
	C438.009338,192.632034 436.501129,191.160843 434.946472,189.474747 
	C434.879364,189.413864 434.858734,189.567902 434.856567,189.894440 
	C434.875092,190.066956 434.791901,190.403824 434.791870,190.403824 
	C434.044556,188.755203 433.297241,187.106583 432.857056,185.194550 
	C434.921082,185.855301 436.678040,186.779449 438.718719,187.883011 
z"/>
<path fill="#F2F2F1" opacity="1.000000" stroke="none" 
	d="
M490.470093,407.992065 
	C487.117157,404.348480 492.800415,403.923126 492.698212,401.314941 
	C493.785736,401.495422 494.873230,401.675903 496.092987,402.176025 
	C494.412842,404.304108 492.600464,406.112488 490.470093,407.992065 
z"/>
<path fill="#F2F2F1" opacity="1.000000" stroke="none" 
	d="
M512.704712,368.812775 
	C511.716217,368.156677 510.890808,367.177368 510.065369,366.198059 
	C510.949493,365.502350 511.833588,364.806610 513.144897,364.152924 
	C513.337402,365.626495 513.102600,367.058014 512.704712,368.812775 
z"/>
<path fill="#F2F2F1" opacity="1.000000" stroke="none" 
	d="
M510.598572,337.543091 
	C510.280365,338.937347 509.993286,340.294922 509.706238,341.652496 
	C509.242096,341.547882 508.777954,341.443268 508.313782,341.338654 
	C508.705780,339.599060 509.097778,337.859497 509.869385,336.065552 
	C510.375916,336.509552 510.502838,337.007965 510.598572,337.543091 
z"/>
<path fill="#EEEEEE" opacity="1.000000" stroke="none" 
	d="
M449.110901,195.655609 
	C447.396118,195.951202 445.480011,196.052216 447.022247,192.998062 
	C447.796387,193.552612 448.434692,194.437347 449.110901,195.655609 
z"/>
<path fill="#F2F2F1" opacity="1.000000" stroke="none" 
	d="
M511.234070,373.741882 
	C510.173767,373.801483 509.312195,373.603912 508.450653,373.406311 
	C508.444641,373.162109 508.438629,372.917908 508.432648,372.673737 
	C509.255035,372.487122 510.077454,372.300507 511.283936,372.174103 
	C511.589630,372.651093 511.511230,373.067871 511.234070,373.741882 
z"/>
<path fill="#030303" opacity="1.000000" stroke="none" 
	d="
M502.843445,375.505371 
	C502.298553,377.084259 501.770935,378.224518 501.226990,379.686096 
	C500.449280,381.296906 499.408752,382.498413 498.970276,383.889618 
	C495.088257,396.206329 484.834412,401.478271 474.010590,405.199951 
	C465.385010,408.165802 456.568726,405.465363 448.318268,402.074677 
	C423.646301,391.935242 406.998230,373.694305 395.976410,349.839172 
	C393.746368,345.012451 391.747498,340.047791 389.132080,335.436005 
	C381.235199,321.511505 384.627472,306.162506 383.195679,291.423370 
	C382.328766,282.499481 385.946930,274.875732 389.937439,267.341248 
	C390.316437,266.625702 390.934174,266.036621 391.922302,264.773804 
	C392.922180,266.101959 393.929779,267.084167 394.516418,268.273895 
	C401.414124,282.263489 408.479736,296.177429 415.022461,310.332520 
	C419.739594,320.537933 427.588226,328.077515 434.722504,336.274780 
	C435.263336,336.088318 435.804199,335.901855 436.345032,335.715424 
	C435.670074,333.351196 435.763458,330.009796 434.197632,328.778564 
	C422.532837,319.606598 416.789642,306.882141 411.712341,293.557404 
	C408.102753,284.084625 403.944550,274.820770 400.022003,265.467499 
	C397.114929,258.535553 397.108337,258.538330 403.969452,253.726761 
	C408.299530,260.963898 412.376526,268.333893 416.982880,275.356659 
	C425.541901,288.405579 434.449646,301.225281 443.120239,314.201843 
	C445.235626,317.367767 447.220520,320.665375 448.839783,324.102905 
	C449.949738,326.459259 451.279175,327.914581 453.663544,326.564575 
	C454.168671,326.278564 453.794922,323.246735 452.992340,322.029999 
	C445.307648,310.379669 437.151306,299.031769 429.715607,287.228394 
	C422.643463,276.002167 416.270538,264.335480 408.601654,251.164734 
	C415.625824,251.014557 421.515991,249.705093 426.780029,250.980362 
	C449.922791,256.586945 467.097198,270.640991 480.961914,289.762482 
	C489.768433,301.907959 496.307007,314.844025 501.050323,328.974762 
	C505.273773,341.556885 503.683228,354.341156 503.573303,367.104156 
	C503.550446,369.760193 503.109161,372.412628 502.843445,375.505371 
z"/>
<path fill="#030303" opacity="1.000000" stroke="none" 
	d="
M199.519394,267.373962 
	C204.457413,257.211670 210.992050,249.353683 221.028137,244.245987 
	C226.091156,241.669266 230.887192,240.209686 236.184937,241.502274 
	C243.881821,243.380203 251.443466,245.812500 259.434387,248.042542 
	C258.008911,257.184784 256.468719,266.352905 254.358658,275.387939 
	C250.544006,291.721649 246.389114,307.975922 242.022400,325.699738 
	C247.697571,325.699738 253.229935,325.519989 258.737366,325.811371 
	C260.348694,325.896606 262.861694,326.974274 263.297241,328.192200 
	C265.424652,334.140839 267.115814,340.247253 264.202423,346.565338 
	C263.405121,348.294373 263.226990,350.308899 262.483337,353.339050 
	C281.398102,355.707886 299.723145,358.002838 318.966431,360.412811 
	C314.714996,374.021210 311.754761,386.549835 297.437561,393.242584 
	C284.819336,399.141144 273.377502,397.670685 261.633881,392.460205 
	C232.270996,379.432404 215.268509,355.872345 203.836761,326.662628 
	C196.784668,308.643585 198.863571,290.349823 198.132278,272.044891 
	C198.076431,270.646851 198.954422,269.211487 199.519394,267.373962 
z"/>
<path fill="#040303" opacity="1.000000" stroke="none" 
	d="
M366.754700,200.191803 
	C362.417328,208.851471 355.887543,210.231583 347.558075,207.403992 
	C344.669403,206.423355 341.406342,206.545639 337.283356,206.036987 
	C338.455170,208.733856 339.282867,210.638748 340.262756,212.893829 
	C332.762299,209.333847 330.121887,205.085068 330.946686,197.999557 
	C331.522583,193.052078 332.505402,188.150497 333.033752,183.199326 
	C333.751251,176.475189 332.759979,175.049881 325.606140,171.539825 
	C325.165833,173.725494 324.740601,175.836182 324.199188,178.523544 
	C319.475983,167.965546 321.827972,158.244766 324.509613,148.555923 
	C324.852051,147.318649 325.416138,145.851685 326.363159,145.117645 
	C336.249939,137.454407 347.009277,132.267853 359.938538,135.216415 
	C362.108826,135.711349 364.031952,137.897980 365.763458,139.611877 
	C378.639801,152.357513 388.674652,167.167145 397.148102,183.399643 
	C387.514954,189.026276 377.903351,194.664200 365.470703,187.004745 
	C366.048676,192.228577 366.468597,196.023697 366.754700,200.191803 
z"/>
<path fill="#060606" opacity="1.000000" stroke="none" 
	d="
M303.343628,354.724731 
	C294.518402,353.508514 286.125397,352.416931 277.753754,351.180359 
	C269.546967,349.968140 267.413513,346.764191 269.424774,339.001862 
	C271.932556,329.323090 271.949402,329.217468 281.946564,330.813080 
	C292.915436,332.563782 303.829834,334.661926 314.810150,336.331085 
	C317.973053,336.811920 319.037079,338.104431 318.943268,341.157806 
	C318.786774,346.252502 318.900574,351.355530 318.900574,356.534027 
	C313.882385,355.953674 308.833801,355.369781 303.343628,354.724731 
z"/>
<path fill="#0B0A0B" opacity="1.000000" stroke="none" 
	d="
M353.998596,294.568970 
	C353.093201,296.410034 352.216187,297.892303 351.118896,299.843445 
	C350.898590,300.312286 350.866241,300.738922 350.866241,300.738922 
	C349.710449,302.055695 348.554626,303.372467 347.182190,304.317261 
	C347.606842,295.975372 348.458710,288.015381 348.836853,280.032959 
	C349.324829,269.731140 349.610413,259.410065 349.532440,249.100693 
	C349.519440,247.380554 347.581726,245.074280 345.912811,244.063354 
	C333.706909,236.669861 321.317352,229.580261 309.054565,222.279190 
	C307.136780,221.137375 305.568329,219.408875 304.270874,217.043503 
	C305.232666,217.227493 306.340485,217.163834 307.134705,217.632050 
	C323.009796,226.991196 338.830688,236.442383 354.713409,245.788452 
	C357.252106,247.282349 357.835266,248.918045 356.371063,251.497787 
	C355.771881,252.553467 355.661346,253.886490 355.378967,254.910416 
	C359.565918,255.992096 363.375153,256.808289 367.071777,257.979767 
	C370.569427,259.088257 370.921875,261.225922 369.186554,264.497192 
	C363.976715,274.318390 359.058807,284.294495 353.998596,294.568970 
z"/>
<path fill="#0A0909" opacity="1.000000" stroke="none" 
	d="
M282.665253,265.131409 
	C283.185150,266.908875 284.148407,268.694031 284.117737,270.461945 
	C284.075104,272.918213 283.289276,275.361969 282.817474,277.810272 
	C281.018921,287.143921 281.026062,287.132019 288.742218,292.223633 
	C292.481934,294.691315 296.333679,297.027161 299.830139,299.805939 
	C301.131104,300.839844 301.563141,302.967072 302.391418,304.595703 
	C300.861725,305.252441 299.313049,306.514404 297.805420,306.467133 
	C288.370422,306.171112 278.944580,305.582947 269.000427,305.064606 
	C271.523956,291.132629 273.946136,277.760223 276.544617,263.709808 
	C277.483765,262.782135 278.472656,262.104401 278.966034,262.364960 
	C280.311005,263.075256 281.446655,264.181824 282.665253,265.131409 
z"/>
<path fill="#0B0A0B" opacity="1.000000" stroke="none" 
	d="
M269.768555,254.565887 
	C270.273804,255.666077 271.307556,256.818909 271.204041,257.858459 
	C269.920258,270.749115 268.671234,283.650787 266.910858,296.480682 
	C266.514954,299.365997 264.599274,302.333557 262.655304,304.653168 
	C258.984558,309.033234 258.102112,313.639587 259.752228,318.968933 
	C260.076508,320.016205 259.967865,321.197571 260.067352,322.421173 
	C251.481873,320.005005 249.686066,317.069916 251.749161,309.082153 
	C256.438110,290.927795 261.150238,272.779480 266.287140,254.096161 
	C267.737091,253.897720 268.752808,254.231796 269.768555,254.565887 
z"/>
<path fill="#0A0909" opacity="1.000000" stroke="none" 
	d="
M319.756500,277.715393 
	C320.297333,280.530975 320.759949,282.906006 321.304169,285.699951 
	C305.155609,275.679993 303.349457,263.724640 313.831177,235.886780 
	C317.397400,238.543610 320.915527,240.848129 323.973816,243.653839 
	C324.792419,244.404831 324.456146,246.722961 324.226288,248.258209 
	C322.776733,257.940369 321.207794,267.604645 319.756500,277.715393 
z"/>
<path fill="#0B0A0B" opacity="1.000000" stroke="none" 
	d="
M304.985535,312.021790 
	C306.809204,312.565216 308.211121,313.229797 309.671234,313.402679 
	C315.347290,314.074677 316.203827,317.369019 314.519653,322.773834 
	C310.348724,322.112366 306.088409,321.700836 301.961426,320.725342 
	C294.214294,318.894196 286.536377,316.766113 278.846924,314.697388 
	C276.591553,314.090637 273.815552,313.339233 275.092163,310.242371 
	C275.569489,309.084442 278.110138,307.969299 279.546906,308.147766 
	C287.921631,309.187988 296.247894,310.618469 304.985535,312.021790 
z"/>
<path fill="#100E10" opacity="1.000000" stroke="none" 
	d="
M360.371033,216.163971 
	C369.108154,218.767395 373.144745,225.736755 377.088135,232.555405 
	C378.714874,235.368256 376.005676,236.129059 373.954224,235.487091 
	C370.505341,234.407791 366.991516,233.156784 363.935394,231.277939 
	C356.760010,226.866623 349.839111,222.041382 342.815247,217.383682 
	C342.932098,216.969971 343.048920,216.556244 343.165771,216.142532 
	C348.756012,216.142532 354.346222,216.142532 360.371033,216.163971 
z"/>
<path fill="#100E10" opacity="1.000000" stroke="none" 
	d="
M279.979553,254.057877 
	C276.321289,251.392609 278.333130,247.998322 278.895630,244.025208 
	C279.059296,242.170578 279.117126,241.094727 279.174957,240.018875 
	C280.014740,235.891342 280.854553,231.763809 281.990540,226.180573 
	C284.764130,232.025757 289.221100,235.618225 288.020844,241.970230 
	C287.076141,246.969940 286.768646,252.090073 285.769379,257.455383 
	C283.566925,256.522034 281.773254,255.289948 279.979553,254.057877 
z"/>
<path fill="#151314" opacity="1.000000" stroke="none" 
	d="
M327.064850,354.799957 
	C325.929962,348.350250 324.669800,342.325012 324.009399,336.234741 
	C323.836060,334.636139 325.521667,332.836029 327.287384,331.303925 
	C329.710419,340.709351 329.922485,350.432190 338.174530,357.243988 
	C334.113464,356.650665 329.865479,359.994934 327.064850,354.799957 
z"/>
<path fill="#151314" opacity="1.000000" stroke="none" 
	d="
M268.823181,242.440918 
	C268.976349,241.283234 269.150604,240.562698 269.304993,239.470520 
	C270.754181,233.156616 272.107025,227.182022 273.748810,221.287918 
	C274.413269,218.902557 275.708282,216.692841 276.716339,214.403198 
	C277.303772,214.573669 277.891235,214.744141 278.478668,214.914627 
	C277.354736,223.009155 276.230804,231.103683 274.991425,239.974121 
	C274.802368,241.814651 274.728790,242.879318 274.655212,243.943970 
	C274.363190,244.729401 274.071198,245.514832 273.551514,246.748230 
	C273.228943,247.523605 273.134094,247.851013 273.039246,248.178421 
	C268.883179,248.594254 267.984772,246.431808 268.823181,242.440918 
z"/>
<path fill="#151314" opacity="1.000000" stroke="none" 
	d="
M298.337708,324.780457 
	C302.117950,325.846344 305.503052,326.820801 308.888153,327.795227 
	C308.808746,328.273041 308.729309,328.750824 308.649872,329.228638 
	C305.181213,328.880554 301.668793,328.768433 298.253113,328.134735 
	C291.400024,326.863251 284.565735,325.442749 277.807770,323.748352 
	C276.523682,323.426422 275.628204,321.554413 274.553406,320.397644 
	C276.143097,320.002350 277.892792,318.969635 279.294983,319.321503 
	C285.564972,320.894958 291.735870,322.863251 298.337708,324.780457 
z"/>
<path fill="#100E10" opacity="1.000000" stroke="none" 
	d="
M356.257874,320.736328 
	C359.020264,322.857513 361.514038,324.744019 364.139099,326.729858 
	C358.191803,331.678955 353.240906,332.533203 346.263519,330.224243 
	C348.052704,326.069580 349.805054,322.000458 351.848511,317.255280 
	C353.782257,318.771362 354.885742,319.636505 356.257874,320.736328 
z"/>
<path fill="#151314" opacity="1.000000" stroke="none" 
	d="
M369.888611,87.084518 
	C364.710510,77.031029 355.116791,72.877403 344.861603,67.558914 
	C351.523346,66.308861 356.221283,66.537537 360.213776,70.776680 
	C364.201050,75.010246 368.481171,78.966454 372.564880,83.111298 
	C374.927155,85.508888 374.657562,87.744797 371.648712,89.893173 
	C371.050598,88.986977 370.532166,88.201530 369.888611,87.084518 
z"/>
<path fill="#232223" opacity="1.000000" stroke="none" 
	d="
M292.848877,165.032562 
	C294.176727,182.147659 294.462341,199.068878 302.625946,215.191742 
	C293.178101,208.476929 293.916901,198.754684 292.709442,189.803391 
	C291.514893,180.947754 289.514404,172.063934 292.711273,163.184128 
	C292.763641,163.670502 292.815979,164.156891 292.848877,165.032562 
z"/>
<path fill="#151314" opacity="1.000000" stroke="none" 
	d="
M434.992920,189.689667 
	C436.501129,191.160843 438.009338,192.632034 439.784821,194.241669 
	C441.901062,196.960358 443.750031,199.540619 445.371857,202.439270 
	C445.144745,202.757645 444.999115,203.018890 444.999115,203.018890 
	C442.732025,202.654236 440.476929,202.131210 438.195312,201.958267 
	C433.587402,201.608994 431.362610,198.872803 430.314331,194.702972 
	C429.466736,191.331543 429.971130,189.392975 434.420013,190.607559 
	C434.791901,190.403824 434.875092,190.066956 434.895752,189.874771 
	C434.916382,189.682587 434.992920,189.689667 434.992920,189.689667 
z"/>
<path fill="#151314" opacity="1.000000" stroke="none" 
	d="
M365.687561,335.604309 
	C365.696716,339.828094 365.451324,343.689178 365.205902,347.550262 
	C364.597961,347.715942 363.990051,347.881592 363.382141,348.047272 
	C360.342529,343.973633 357.302917,339.899994 354.263306,335.826385 
	C354.502594,335.293091 354.741913,334.759766 354.981201,334.226471 
	C358.465149,334.564850 361.949066,334.903229 365.687561,335.604309 
z"/>
<path fill="#100E10" opacity="1.000000" stroke="none" 
	d="
M332.503143,323.681061 
	C332.503143,323.681061 332.658142,323.408569 332.577209,323.172729 
	C332.496307,322.936890 332.556030,322.810303 332.556030,322.810303 
	C332.556030,319.731812 332.556030,316.653320 332.556030,313.175720 
	C335.725922,313.175720 339.079010,313.175720 343.511749,313.175720 
	C340.822327,317.765839 338.463623,321.791504 335.823792,326.296936 
	C334.674194,324.953064 333.993927,324.157837 332.903717,323.568542 
	C332.493805,323.774536 332.503143,323.681061 332.503143,323.681061 
z"/>
<path fill="#151314" opacity="1.000000" stroke="none" 
	d="
M345.863892,82.161942 
	C344.437164,80.049477 343.219788,78.229294 342.002441,76.409111 
	C342.397522,76.019501 342.792603,75.629890 343.187683,75.240280 
	C348.218567,79.069229 353.249481,82.898186 358.874939,87.179665 
	C351.479034,88.658844 350.190613,88.114380 345.863892,82.161942 
z"/>
<path fill="#EAEBE9" opacity="1.000000" stroke="none" 
	d="
M279.975769,254.426575 
	C281.773254,255.289948 283.566925,256.522034 285.677673,257.839844 
	C285.098846,260.205994 284.203003,262.486328 282.986206,264.949036 
	C281.446655,264.181824 280.311005,263.075256 278.966034,262.364960 
	C278.472656,262.104401 277.483765,262.782135 276.465576,263.329468 
	C277.464203,260.683136 278.718109,257.739197 279.975769,254.426575 
z"/>
<path fill="#3B383B" opacity="1.000000" stroke="none" 
	d="
M325.219147,327.027893 
	C324.481323,326.591095 323.119751,326.177368 323.102600,325.713928 
	C322.939880,321.317841 323.005676,316.913300 323.603943,312.389862 
	C326.445557,315.108795 328.706238,317.935577 326.532349,322.814270 
	C325.924866,324.634857 325.571991,325.831360 325.219147,327.027893 
z"/>
<path fill="#E5E4E4" opacity="1.000000" stroke="none" 
	d="
M325.519409,327.052795 
	C325.571991,325.831360 325.924866,324.634857 326.463928,323.186035 
	C328.312988,323.217316 329.975830,323.500885 332.070892,323.732758 
	C332.503143,323.681061 332.493805,323.774536 332.536072,323.797699 
	C330.325439,324.906464 328.072571,325.992065 325.519409,327.052795 
z"/>
<path fill="#EAEBE9" opacity="1.000000" stroke="none" 
	d="
M275.065918,243.957672 
	C274.728790,242.879318 274.802368,241.814651 275.012817,240.370071 
	C276.222565,239.998978 277.295471,240.007812 278.771667,240.017761 
	C279.117126,241.094727 279.059296,242.170578 278.872131,243.631378 
	C277.654053,244.001328 276.565338,243.986343 275.065918,243.957672 
z"/>
<path fill="#EAEBE9" opacity="1.000000" stroke="none" 
	d="
M269.835968,254.224823 
	C268.752808,254.231796 267.737091,253.897720 266.342957,253.713806 
	C267.233521,252.988617 268.502441,252.113297 269.771393,251.237976 
	C269.815399,252.119904 269.859375,253.001831 269.835968,254.224823 
z"/>
<path fill="#EAEBE9" opacity="1.000000" stroke="none" 
	d="
M273.087036,248.510468 
	C273.134094,247.851013 273.228943,247.523605 273.545135,247.064560 
	C274.423035,247.629364 275.079620,248.325821 275.736206,249.022263 
	C274.869080,248.962341 274.001953,248.902420 273.087036,248.510468 
z"/>
<path fill="#EEEEEE" opacity="1.000000" stroke="none" 
	d="
M445.057861,203.350708 
	C444.999115,203.018890 445.144745,202.757645 445.293396,202.774033 
	C446.112671,203.163910 446.783295,203.537399 447.453888,203.910889 
	C447.307648,204.169662 447.056183,204.664169 447.030548,204.652740 
	C446.378174,204.361557 445.749481,204.017410 445.057861,203.350708 
z"/>
<path fill="#0B0A0B" opacity="1.000000" stroke="none" 
	d="
M346.536926,303.799011 
	C346.522217,305.201660 346.100800,306.434906 345.314606,307.312531 
	C345.343262,305.847809 345.736725,304.738739 346.536926,303.799011 
z"/>
<path fill="#EAEBE9" opacity="1.000000" stroke="none" 
	d="
M359.868347,288.284729 
	C359.772003,288.743561 359.636780,288.984222 359.501556,289.224915 
	C359.367065,288.984528 359.075226,288.684814 359.137848,288.518738 
	C359.216309,288.310669 359.585663,288.212311 359.868347,288.284729 
z"/>
<path fill="#EAEBE9" opacity="1.000000" stroke="none" 
	d="
M266.473633,250.454422 
	C266.525299,250.424911 266.421997,250.483932 266.473633,250.454422 
z"/>
<path fill="#E5E4E4" opacity="1.000000" stroke="none" 
	d="
M325.457031,329.445557 
	C325.513824,329.411560 325.400238,329.479523 325.457031,329.445557 
z"/>
<path fill="#E5E4E4" opacity="1.000000" stroke="none" 
	d="
M332.402161,322.619385 
	C332.556030,322.810303 332.496307,322.936890 332.508301,323.031952 
	C332.275421,322.921082 332.030609,322.715179 331.785767,322.509247 
	C331.939941,322.482330 332.094147,322.455383 332.402161,322.619385 
z"/>
<path fill="#0B0A0B" opacity="1.000000" stroke="none" 
	d="
M344.593689,306.552856 
	C345.187164,307.070404 345.430298,307.174957 345.611084,307.671661 
	C345.288269,308.111206 345.027771,308.158630 344.242859,307.749939 
	C343.577087,307.083130 343.435730,306.872437 343.294373,306.661804 
	C343.610718,306.487823 343.927063,306.313843 344.593689,306.552856 
z"/>
<path fill="#3B383B" opacity="1.000000" stroke="none" 
	d="
M343.109131,306.885773 
	C343.435730,306.872437 343.577087,307.083130 343.859100,307.647461 
	C343.641083,307.704010 343.282471,307.406891 343.109131,306.885773 
z"/>
<path fill="#0A0909" opacity="1.000000" stroke="none" 
	d="
M532.379150,216.096100 
	C540.276917,217.455841 541.744751,223.178329 542.517456,229.394104 
	C544.028076,241.546036 538.624451,247.350128 526.466492,246.818039 
	C523.912415,246.706253 522.401428,246.063919 522.427612,243.141403 
	C522.508057,234.178635 522.456909,225.214691 522.456909,216.047440 
	C526.013733,216.047440 528.984131,216.047440 532.379150,216.096100 
z"/>
<path fill="#0B0A0B" opacity="1.000000" stroke="none" 
	d="
M530.479126,181.470108 
	C539.757324,182.667603 542.457092,186.770737 541.162537,197.125854 
	C540.100586,205.620667 534.921814,208.319061 522.565430,206.621262 
	C522.565430,198.419479 522.565430,190.176437 522.565430,181.412170 
	C525.220703,181.412170 527.639648,181.412170 530.479126,181.470108 
z"/>
<path fill="#F6F6F6" opacity="1.000000" stroke="none" 
	d="
M253.528992,181.546555 
	C253.477631,181.576447 253.580368,181.516663 253.528992,181.546555 
z"/>
<path fill="#0A0909" opacity="1.000000" stroke="none" 
	d="
M801.238770,215.144592 
	C801.564697,212.420547 801.292908,209.805389 802.339355,207.923126 
	C803.461304,205.905060 805.807373,203.303116 807.648499,203.279892 
	C809.790955,203.252884 813.644775,205.558792 813.826782,207.180832 
	C814.513489,213.303024 814.354370,219.596115 813.682190,225.734375 
	C813.537354,227.057327 809.764404,229.110550 807.973328,228.831726 
	C805.876038,228.505234 803.315735,226.355728 802.414368,224.343796 
	C801.257446,221.761368 801.552124,218.528641 801.238770,215.144592 
z"/>
<path fill="#0B0A0B" opacity="1.000000" stroke="none" 
	d="
M802.759155,263.675201 
	C799.312134,262.837067 797.939514,260.600281 799.141296,258.042572 
	C800.197693,255.794266 802.288513,252.943130 804.369141,252.511520 
	C807.774536,251.805069 811.697144,252.331085 815.096619,253.352417 
	C816.992249,253.921936 819.640381,256.678711 819.487061,258.202057 
	C819.290466,260.156036 816.877991,262.991180 814.957092,263.432892 
	C811.198547,264.297241 807.119202,263.766083 802.759155,263.675201 
z"/>
<path fill="#100E10" opacity="1.000000" stroke="none" 
	d="
M672.762451,225.996796 
	C669.651855,225.993896 667.002075,225.993896 663.600037,225.993896 
	C665.728455,214.657578 667.775696,203.753677 669.822937,192.849777 
	C670.195435,192.833298 670.567932,192.816818 670.940430,192.800323 
	C672.903809,203.602036 674.867249,214.403748 676.907104,225.626007 
	C675.631714,225.755386 674.427490,225.877548 672.762451,225.996796 
z"/>
<path fill="#060606" opacity="1.000000" stroke="none" 
	d="
M846.729187,230.980652 
	C846.797302,223.992676 846.807129,217.500061 846.955444,211.010590 
	C847.040710,207.280426 847.864136,203.679977 852.555298,203.715424 
	C857.174377,203.750336 858.845886,207.095535 858.889099,211.137436 
	C858.993958,220.956131 858.949524,230.778702 858.788330,240.596802 
	C858.729431,244.187973 857.571045,247.190918 853.081482,247.250626 
	C848.400330,247.312866 847.150757,244.281174 846.898315,240.461548 
	C846.700989,237.476120 846.775391,234.472717 846.729187,230.980652 
z"/>
<path fill="#F6F6F6" opacity="1.000000" stroke="none" 
	d="
M257.440491,242.662781 
	C257.324585,242.904266 257.142975,243.113831 256.961365,243.323395 
	C256.959473,243.134079 256.957550,242.944763 257.134308,242.626984 
	C257.313019,242.498505 257.374817,242.630859 257.440491,242.662781 
z"/>
<path fill="#F6F6F6" opacity="1.000000" stroke="none" 
	d="
M504.453125,379.530487 
	C504.422302,379.477661 504.483948,379.583313 504.453125,379.530487 
z"/>
<path fill="#F6F6F6" opacity="1.000000" stroke="none" 
	d="
M351.014282,300.977112 
	C350.866241,300.738922 350.898590,300.312286 351.052551,300.163757 
	C351.661743,300.353241 352.116943,300.691284 352.572144,301.029297 
	C352.102203,301.091278 351.632263,301.153290 351.014282,300.977112 
z"/>
<path fill="#F6F6F6" opacity="1.000000" stroke="none" 
	d="
M355.000610,298.000610 
	C354.908173,298.035919 354.815186,298.070648 354.860474,298.052155 
	C354.998779,297.998962 355.000000,298.000000 355.000610,298.000610 
z"/>
<path fill="#F6F6F6" opacity="1.000000" stroke="none" 
	d="
M434.946472,189.474747 
	C434.992920,189.689667 434.916382,189.682587 434.877228,189.702271 
	C434.858734,189.567902 434.879364,189.413864 434.946472,189.474747 
z"/>
</svg>